<?xml version="1.0" encoding="utf-8"?>
<!-- Generator: Adobe Illustrator 19.2.1, SVG Export Plug-In . SVG Version: 6.00 Build 0)  -->
<svg version="1.1" id="Layer_1" xmlns="http://www.w3.org/2000/svg" xmlns:xlink="http://www.w3.org/1999/xlink" x="0px" y="0px"
	 width="57px" height="57px" viewBox="0 0 57 57" style="enable-background:new 0 0 57 57;" xml:space="preserve">
<style type="text/css">
	.st0{display:none;}
	.st1{display:inline;fill:#D2D2D2;}
	.st2{display:inline;}
	.st3{fill:#D2D2D2;}
	.st4{display:none;fill:#D2D2D2;}
</style>
<g id="iei" class="st0">
	<path id="inst-logo.svg" class="st1" d="M57,29.2L45.7,43.3l-0.4,0.5l-0.6-0.1l-22.9-1.5L3.9,53.4c1.8,1.8,4.2,2.9,6.8,2.9
		c0,0,5.1,0.7,17.8,0.7s17.8-0.7,17.8-0.7c5.4-0.2,9.2-3.9,9.8-10.2C56.1,46.1,56.9,38.6,57,29.2z M56.9,21.4L33.1,36.8l-0.6,0.4
		l-0.6-0.3l-19.2-8L0.4,40.2c0.2,3.5,0.5,5.9,0.5,5.9c0.1,1.8,0.6,3.6,1.5,5.3L20.7,40l0.4-0.2h0.4l22.6,1.5l12.8-16
		C56.9,23.9,56.9,22.6,56.9,21.4L56.9,21.4z M54.8,6.1L34.6,23.2L33.7,24l-0.8-0.8L20.7,11.1L0,31.5c0,2,0.1,3.8,0.2,5.5l11.4-10.4
		l0.6-0.6l0.7,0.3l19.3,8.1l24.4-15.9c-0.3-4.4-0.6-7.6-0.6-7.6C56,9.2,55.5,7.6,54.8,6.1z M28.5,0C15.8,0,10.7,0.7,10.7,0.7
		C5.3,1,1.5,4.6,0.9,10.9c0,0-0.9,7.9-0.9,17.1L19.8,8.4l0.9-0.9l0.9,0.9l12.3,12.1L53.4,4c-1.8-2-4.4-3.2-7.1-3.3
		C46.3,0.7,41.1,0,28.5,0z"/>
</g>
<g id="iets" class="st0">
	<g id="symbol_1_" class="st2">
		<path class="st3" d="M17.4,1.2v12c2.4-4.4,2.2-8.8,2.2-12C18.8,1.1,18.1,1.1,17.4,1.2z"/>
		<path class="st3" d="M2.2,11.5C2,13.2,1.3,19.4,1.3,28.6s0.3,12.6,0.9,17.1c1,8.3,3.8,9.6,13,10.2v-9.8c0-7.8-1.8-10.4-4-13.2
			c-2.4-3.3-4-6.9-4-11.7c0.2-6.7-3-8.5-3.6-14.6C2.9,8,2.5,9.6,2.2,11.5z"/>
		<path class="st3" d="M37.8,1c0,4.2,0.1,8.2,2.1,11.9V1.2C39.3,1.1,38.5,1.1,37.8,1z"/>
		<path class="st3" d="M5.2,4.4c0.1,3,1,5.8,1.9,8.2V2.9C6.4,3.3,5.8,3.8,5.2,4.4z"/>
		<path class="st3" d="M41.6,1.3v11.4c2.3-4.3,2-8.2,2-11.3C43.1,1.4,42.6,1.3,41.6,1.3z"/>
		<path class="st3" d="M8.9,2.1v11c2-3.9,2.4-7.9,2.2-11.4C10.3,1.8,9.5,1.9,8.9,2.1z"/>
		<path class="st3" d="M37.8,32.3c1.2,1.8,2.5,3.6,3.3,6.6c0.8-3.1,2.2-5,3.4-6.8c1.8-2.6,3.8-5.1,3.9-11.7
			c0.2-4.6-2.6-8.5-3.4-12.4c-1.1,4.3-3.4,8.6-3.4,12.2C41.5,24.2,40,29.1,37.8,32.3z"/>
		<path class="st3" d="M50.2,2.9v6.7c1-1.8,1.5-3.9,1.8-5.5C51.4,3.7,50.8,3.3,50.2,2.9z"/>
		<path class="st3" d="M29.9,0.9C30,5.1,30,8.4,32,12.8V0.9C31.4,0.9,30.7,0.9,29.9,0.9z"/>
		<path class="st3" d="M15.7,1.3c-0.8,0.1-1.3,0.1-1.9,0.2c0.1,3.9-0.3,6.5,1.9,11.1V1.3L15.7,1.3z"/>
		<path class="st3" d="M9.1,21.6c0.2,5.3,1.9,8.1,3.6,10.5c1.3,1.8,2.6,3.7,3.4,6.9c0.8-3,2-4.9,3.3-6.7c-2.8-4.3-3.8-7.3-3.7-11.5
			c0-0.5-0.1-1-0.1-1.6c-0.3-4.1-2.6-7.8-3.3-11.3C11.2,12.4,9,16.3,9.1,21.6z"/>
		<path class="st3" d="M25.3,21.3c0.4,5.4,1.8,7.9,3.4,10.1c1.6-2.3,3-4.8,3.4-10.4c0.2-4.7-2.5-8.7-3.4-12.6
			C27.3,12.9,25.4,17.6,25.3,21.3z"/>
		<path class="st3" d="M33.9,21.5c0.4,4.8,1.6,7.3,2.9,9.4c1.5-2.3,3.1-5.5,3.1-10.1c0.3-4.3-2-7.4-3.1-10.9
			C35.3,13.9,34,18.3,33.9,21.5z"/>
		<path class="st3" d="M29.7,32.9c1.1,1.6,2.2,3.4,2.9,6c0.8-3,2-4.9,3.3-6.6c-1.1-1.6-2.2-3.4-2.9-6.1
			C32.1,29.3,30.9,31.2,29.7,32.9z"/>
		<path class="st3" d="M25.7,46.1v10.2c0.9,0,1.9,0,2.9,0s2,0,2.9,0V46.1c0-6.5-1.3-9.3-2.9-11.7C27.1,36.8,25.7,39.6,25.7,46.1z"/>
		<path class="st3" d="M21.5,32.3c1.2,1.8,2.5,3.6,3.3,6.6c0.7-2.6,1.8-4.4,2.9-6c-1.2-1.7-2.5-3.6-3.3-6.7
			C23.6,29,22.6,30.8,21.5,32.3z"/>
		<path class="st3" d="M33.5,46.1v10.1c2.7-0.1,4.9-0.2,6.7-0.2v-9.9c0-7.1-1.5-9.7-3.4-12.3C35,36.4,33.5,39.1,33.5,46.1z"/>
		<path class="st3" d="M48.5,13V2.1c-0.7-0.2-1.4-0.4-2.2-0.4C46.4,5.7,46.3,9,48.5,13z"/>
		<path class="st3" d="M17.2,46.1V56c1.8,0.1,3.9,0.2,6.7,0.2V46.1c0-7.1-1.5-9.7-3.4-12.3C18.7,36.4,17.2,39.1,17.2,46.1z"/>
		<path class="st3" d="M33.9,1v12C36.4,7.5,36,4.3,36,1.1C35.3,1,34.6,1,33.9,1z"/>
		<path class="st3" d="M25.3,0.9V13c2.5-5.3,2.2-8.8,2.2-12.1C26.7,0.9,26,0.9,25.3,0.9z"/>
		<path class="st3" d="M23.5,12.8V1c-0.7,0-1.5,0-2.1,0C21.4,5.2,21.4,8.8,23.5,12.8z"/>
		<path class="st3" d="M17.6,21.8c0.3,4.6,1.5,7,2.9,9c1.4-2.2,2.6-4.8,3-10.1c0.1-4.1-1.9-7.5-3-10.9C19,13.8,17.4,18.4,17.6,21.8z
			"/>
		<path class="st3" d="M46,32.9c-2,2.9-4,5.4-4,13.2v9.8c6.6,0,12-0.5,13-10.2c0.4-4.5,0.9-7.6,0.9-17.1c0-9.2-0.7-15.2-0.9-17.1
			c-0.2-2.2-0.8-4.1-1.8-5.6c-0.4,1.5-0.8,2.7-1.4,3.9c-1.7,3.8-1.8,6.5-1.8,10.4C50.2,24.5,48.4,29.6,46,32.9z"/>
	</g>
</g>
<g id="iknt" class="st0">
	<g id="symbol_13_" class="st2">
		<path class="st3" d="M1.5,24.5L21.1,4.8v-4H21c-3.5,0.1-5.6,0.3-7.1,0.4v2.6l-0.2,0.3L1.9,15.8C1.7,18.1,1.5,21.1,1.5,24.5z"/>
		<path class="st3" d="M46,34.4c0,1.9,1.5,3.5,3.5,3.5s3.5-1.5,3.5-3.5c0-1.9-1.5-3.5-3.5-3.5C47.5,30.9,46,32.4,46,34.4z"/>
		<path class="st3" d="M19.1,28.2c0,1.9,1.5,3.5,3.5,3.5s3.5-1.5,3.5-3.5s-1.5-3.5-3.5-3.5S19.1,26.3,19.1,28.2z"/>
		<path class="st3" d="M31.9,0.7v55.7c9.9-0.1,14.1-0.7,14.1-0.7c5.2-0.2,8.9-3.8,9.5-9.9c0,0,0.9-7.7,0.9-17.2
			c0-9.2-0.9-17.2-0.9-17.2c-0.6-6.1-4.2-9.7-9.5-9.9c0,0-1.6-0.2-5.1-0.4v3.8l9.4,9.4l0.3,0.2v14.8c2.4,0.4,4.2,2.6,4.2,5.1
			c0,2.9-2.4,5.2-5.2,5.2c-2.9,0-5.2-2.4-5.2-5.2c0-2.6,1.9-4.8,4.5-5.2v-14l-9.6-9.7V0.9C37.2,0.8,34.7,0.8,31.9,0.7z M43.3,19.9
			c0,2.6-1.9,4.7-4.4,5.1v15l12.8,12.8L50.5,54l-13-13l-0.3-0.3V25c-2.4-0.4-4.3-2.6-4.3-5.1c0-2.9,2.4-5.2,5.2-5.2
			C41,14.7,43.3,17,43.3,19.9z"/>
		<path class="st3" d="M17.3,41.9c0-1.9-1.5-3.5-3.5-3.5s-3.5,1.5-3.5,3.5c0,1.9,1.5,3.5,3.5,3.5S17.3,43.8,17.3,41.9z"/>
		<path class="st3" d="M1.4,28.6c0,9.2,0.9,17.2,0.9,17.2c0.3,3.1,1.4,5.5,3,7.2V32.2l0.2-0.3L22,15.5l1.5-1.5v9.2
			c2.5,0.4,4.4,2.6,4.4,5.1c0,2.9-2.4,5.2-5.2,5.2s-5.2-2.4-5.2-5.2c0-2.6,1.9-4.7,4.4-5.1v-4.9L7,32.9v21.5
			c1.3,0.8,2.9,1.2,4.7,1.3c0,0,2,0.3,6.7,0.6l-5.1-5.1L13,50.9V47c-2.5-0.4-4.5-2.5-4.5-5.2c0-2.9,2.4-5.2,5.2-5.2s5.2,2.4,5.2,5.2
			c0,2.5-1.8,4.6-4.2,5.1V50l6.2,6.2H21c2.2,0.1,4.7,0.1,7.8,0.1h1.3V0.7c-0.4,0-0.8,0-1.3,0c-2.3,0-4.2,0-6,0.1v4.8l-0.3,0.2
			L1.4,27C1.4,27.5,1.4,28,1.4,28.6z"/>
		<path class="st3" d="M11.7,1.5c-5.2,0.2-8.9,3.8-9.5,9.9c0,0-0.1,0.7-0.2,1.8l10-10V1.4L11.7,1.5z"/>
		<path class="st3" d="M34.6,19.9c0,1.9,1.5,3.5,3.5,3.5s3.5-1.5,3.5-3.5S40,16.4,38,16.4C36.1,16.4,34.6,17.9,34.6,19.9z"/>
	</g>
</g>
<g id="ippt" class="st0">
	<g id="symbol_2_" class="st2">
		<path class="st3" d="M46.4,10.3c0.8-0.2,1.5-0.3,2.3-0.4C46.3,7.5,44,6,41.4,5.2c-0.5-0.1-1-0.1-1.5-0.1c-0.8,0.2-2.3,0.7-4.1,1.7
			c1.8,1.1,3.9,2.7,6.3,5.2C43.6,11.2,44.9,10.6,46.4,10.3z"/>
		<path class="st3" d="M50.3,9.9c0.2,0,0.4,0,0.7,0c0.6,0.1,1.2,0.2,1.7,0.3C51,9,49.2,7.9,47.4,7.1c0.8,0.7,1.6,1.4,2.4,2.2
			C50,9.4,50.1,9.6,50.3,9.9z"/>
		<path class="st3" d="M41.1,12.7c-2.4-2.4-4.4-3.9-6.1-5c-0.1-0.1-0.2-0.1-0.3-0.1c-1.3,0.9-2.7,2-4.2,3.5c-1.3,1.3-2.5,2.6-3.7,4
			c1.7,0.7,3.3,1.8,4.9,3.3c0.5,0.4,1,0.9,1.6,1.5C35.5,17.3,38.2,14.7,41.1,12.7z"/>
		<path class="st3" d="M55.4,45.8c0,0,0.3-2.7,0.6-6.9c-1.3,0.8-3,2.1-5.5,4c1.7,2.6,3,4.7,4.1,6.7C55,48.5,55.2,47.2,55.4,45.8z"/>
		<path class="st3" d="M55.5,12.7c-0.4-0.3-0.9-0.6-1.7-0.9c-0.7-0.3-1.4-0.5-2.3-0.7c1.4,1.7,2.8,3.5,4.4,5.7
			C55.7,15.1,55.6,13.7,55.5,12.7z"/>
		<path class="st3" d="M45.9,55.8c3.5-0.2,6.3-1.8,8-4.8c-1.2-2-2.6-4.4-4.5-7.2c-0.7,0.6-1.4,1-2.2,1.7C45,47.2,43,49,41.1,50.6
			c1.4,1.8,2.8,3.6,4.1,5.3C45.5,55.8,45.9,55.8,45.9,55.8z"/>
		<path class="st3" d="M29.8,24.1c0.8-1,1.7-2.1,2.5-3.2c-0.6-0.6-1-1-1.6-1.5c-1.7-1.5-3.3-2.5-4.9-3.2c-3.4,4.2-6.4,8.3-8.3,11.1
			c2.2,1.1,4.4,2.6,6.6,4.4C26.5,28.6,28.6,25.8,29.8,24.1z"/>
		<path class="st3" d="M13.4,25.7c1,0.2,2.1,0.6,3.1,1c1.8-2.7,4.7-6.8,8.2-11c-1-0.3-2-0.5-3.1-0.6h-0.1c-0.8,0.1-1.7,0.2-2.4,0.3
			c-0.6,0.6-1.1,1.2-1.6,1.8c-1.2,1.5-3.6,4.6-6.2,8.1C12,25.5,12.7,25.6,13.4,25.7z"/>
		<path class="st3" d="M56.2,28.6c0-2.2-0.1-4.4-0.1-6.3c-1.3,0.2-2.8,0.6-4,1.2c-0.3,0.2-0.7,0.4-1,0.6c2.1,3.4,3.6,5.8,5.1,8.4
			C56.2,31.2,56.2,29.9,56.2,28.6z"/>
		<path class="st3" d="M56.1,34.6c-1.7-2.8-3.7-6-6.1-9.9c-2.6,1.6-5.2,3.7-7.9,6.2c0.4,0.6,0.7,1,1.1,1.5c2.4,3.4,4.6,6.6,6.5,9.5
			c2.6-2,4.6-3.4,5.9-4.2c0.2-0.1,0.2-0.2,0.4-0.2C56,36.5,56.1,35.6,56.1,34.6z"/>
		<path class="st3" d="M40.2,51.3c-2.3,2-4.2,3.7-5.8,5.1c4.7-0.1,7.7-0.3,9.4-0.5C42.7,54.5,41.5,52.9,40.2,51.3z"/>
		<path class="st3" d="M1.3,28.6L1.3,28.6c0.2-0.2,0.4-0.4,0.6-0.6c-0.2,0.1-0.4,0.1-0.6,0.2C1.3,28.3,1.3,28.5,1.3,28.6z"/>
		<path class="st3" d="M18.4,14.4c1.4-1.5,2.9-2.9,4.2-4.1c-2.2,1.4-4.2,3-6.2,4.7C17.1,14.8,17.7,14.6,18.4,14.4z"/>
		<path class="st3" d="M36.3,5.2c-1.4,0.1-2.6,0.3-3.9,0.7c0.7,0,1.4,0.2,2.1,0.4C35.2,5.8,35.8,5.5,36.3,5.2z"/>
		<path class="st3" d="M29.5,7.5c-1.8,0.5-3,1.3-3.1,1.3v0.1c-0.1,0.1-3,2.5-5.8,5.2c0.3-0.1,0.7-0.1,1-0.1l0,0l0,0
			c1.4,0.1,2.7,0.3,4,0.8c1.3-1.5,2.6-3,4-4.4C30.8,9,32,8,33.1,7.2c-0.3-0.1-0.6-0.1-0.9-0.1C31.3,7.1,30.4,7.3,29.5,7.5z"/>
		<path class="st3" d="M8.3,25.4c0.5-0.1,0.9-0.1,1.4-0.1c2.8-3.8,5.5-7.2,6.8-8.8c0.1-0.1,0.2-0.2,0.2-0.3c-2.6,1.1-5.1,3-7.3,5.1
			c-1.4,1.4-2.8,2.9-4.1,4.4C6.3,25.6,7.3,25.5,8.3,25.4z"/>
		<path class="st3" d="M31.4,40.5c-2.3-2.6-4.6-5-6.9-7.1c-2.9,3.9-5.8,7.9-8.2,11.2c2.5,1.8,4.8,3.7,6.9,5.6
			C26.1,46.8,28.8,43.5,31.4,40.5z"/>
		<path class="st3" d="M23.5,32.6c-2.2-1.8-4.4-3.3-6.6-4.4c-0.9,1.3-1.4,2.2-1.4,2.2v0.1c0,0-2.8,4.5-6.3,9.7
			c1.8,1,3.9,2.2,6.1,3.8C17.6,40.6,20.6,36.6,23.5,32.6z"/>
		<path class="st3" d="M40.5,30.7c-2.7-3.7-5.1-6.7-7.2-8.9c-0.9,1-1.7,2.1-2.4,3c-1.3,1.7-3.4,4.5-5.7,7.6c2.4,2.1,4.7,4.5,7.1,7.1
			C35.1,36.3,37.8,33.3,40.5,30.7z"/>
		<path class="st3" d="M3.7,37.6c1.3,0.4,2.8,1.1,4.4,2c3.5-5.2,6.4-9.8,6.4-9.8s0.5-0.8,1.3-2c-0.9-0.4-1.8-0.7-2.7-0.9
			c-0.9-0.2-1.8-0.3-2.7-0.3C7.7,30.3,4.9,34,2.6,37.3C2.9,37.3,3.2,37.4,3.7,37.6z"/>
		<path class="st3" d="M32.5,56.5c1.8-1.6,4.1-3.6,6.9-6.1c-2.4-3-4.7-6.1-7.2-8.9c-2.6,3-5.3,6.2-8.1,9.6c2.2,1.9,4,3.8,5.6,5.5
			C30.7,56.5,31.6,56.5,32.5,56.5z"/>
		<path class="st3" d="M46.5,44.4c0.8-0.7,1.5-1.2,2.2-1.8c-1.9-2.9-4-6.1-6.5-9.5c-0.3-0.5-0.7-0.9-1-1.4c-2.6,2.5-5.3,5.5-8.2,8.7
			c2.5,2.9,5,6,7.3,9.1C42.3,47.9,44.4,46.2,46.5,44.4z"/>
		<path class="st3" d="M10.3,18.6c4.2-3.5,8.6-7.5,13.7-10.5c3.9-2.3,8.1-3.9,13-4.2c0.9-0.1,1.2-0.2,4.6,0.2
			c3.5,0.3,9.8,3.1,13.6,6.5c-0.8-5.7-4.4-9-9.4-9.2c0,0-4.9-0.7-17.2-0.7c-12.1,0-17,0.7-17,0.7c-5.2,0.2-8.9,3.8-9.4,9.9
			c0,0-0.4,4-0.7,9.5L10.3,18.6z"/>
		<path class="st3" d="M41.9,13.6c-2.9,1.9-5.6,4.5-7.8,7.2c2.2,2.3,4.6,5.3,7.3,9c2.7-2.5,5.3-4.6,7.9-6.3
			C46.6,19.2,44.1,16,41.9,13.6z"/>
		<path class="st3" d="M7.3,54.7c1.4-1.7,3.5-4.2,5.3-6.9c0.4-0.7,1.3-1.8,2-2.8c-2.2-1.5-4.2-2.8-6.1-3.8c-1.8,2.8-3.8,5.6-5.6,8.1
			C3.7,51.7,5.2,53.5,7.3,54.7z"/>
		<path class="st3" d="M2.4,47.8c1.7-2.3,3.4-4.7,5-7.2c-1.6-0.8-3-1.4-4.2-1.8c-0.6-0.2-1-0.3-1.4-0.5c-0.1,0.2-0.2,0.3-0.3,0.4
			C1.8,42.9,2,45.8,2,45.8C2.2,46.5,2.3,47.2,2.4,47.8z"/>
		<path class="st3" d="M23.4,52c-1.2,1.4-2.4,2.9-3.6,4.4c2.3,0.1,5,0.2,8.3,0.2C26.6,55.1,25.1,53.6,23.4,52z"/>
		<path class="st3" d="M18.2,56.3c1.4-1.7,2.9-3.5,4.3-5.1c-2.1-1.9-4.4-3.8-6.9-5.5c-0.7,0.9-1.5,2.1-2,2.8
			c-1.8,2.6-3.8,5.1-5.2,6.8c1,0.4,2,0.6,3.2,0.6C11.6,55.8,13.6,56.1,18.2,56.3z"/>
		<path class="st3" d="M51.6,22.4L51.6,22.4c1.4-0.7,3.1-1.1,4.5-1.3c0-0.6-0.1-1.3-0.1-1.8c-2.2-3.3-4.2-6-6.2-8.2
			c-0.9,0-1.9,0.1-3,0.4c-1.3,0.3-2.5,0.9-3.7,1.5c2.2,2.4,4.6,5.6,7.4,10C50.8,22.8,51.2,22.6,51.6,22.4z"/>
		<path class="st3" d="M1.5,36.7c2.1-3,4.7-6.6,7.3-10c-1.7,0-3.4,0.3-4.8,0.7c-0.9,1.1-1.8,2.2-2.7,3.1C1.3,32.8,1.4,34.8,1.5,36.7
			z"/>
		<path class="st3" d="M3.3,26.3c1.7-1.9,3.4-4,5.3-5.8c0.1-0.1,0.2-0.2,0.3-0.2l-7.4,1.9c-0.1,1.5-0.1,3.1-0.1,4.7
			C1.9,26.7,2.5,26.5,3.3,26.3z"/>
	</g>
</g>
<g id="isi" class="st0">
	<g id="symbol_9_" class="st2">
		<path class="st3" d="M5.9,4.2c0.6,0.6,2.9,2.9,2.9,2.9c1.1,0.9,2.9,1.8,4,1.9c0,0,0.3,0,1,0.1c-0.2-0.2-0.4-0.3-0.6-0.4
			c0-0.2-3.6-3.8-5.5-5.7C7,3.3,6.5,3.7,5.9,4.2z"/>
		<path class="st3" d="M12.4,46.3c0.4-0.1,0.9-0.1,1.3-0.2c0.3-0.1,4.6-0.7,15.1-0.7c1.2,0,2.2,0,3.3,0.1c8.1,0.1,11.5,0.6,11.9,0.7
			c0.3,0.1,0.8,0.1,1.3,0.2L31,32.2c-0.7,0.4-1.4,0.6-2.2,0.6c-0.8,0-1.5-0.2-2.2-0.6L12.4,46.3z"/>
		<path class="st3" d="M46.4,13.7v-0.1l0,0c0.1-0.5,0.1-0.9,0.2-1.4L32.4,26.4c0.4,0.7,0.7,1.4,0.7,2.2c0,0.8-0.3,1.5-0.7,2.2
			L46.6,45c-0.1-0.4-0.2-0.9-0.2-1.3c-0.1-0.4-0.7-4.6-0.7-15.1c0-1.2,0-2.2,0-3.3C45.9,17.2,46.4,13.8,46.4,13.7z"/>
		<path class="st3" d="M43.7,11c-0.1,0-4.4,0.7-14.9,0.7c-1.2,0-2.3,0-3.3,0C17.5,11.5,14,11,13.7,11s-0.8-0.1-1.3-0.2L26.6,25
			c0.7-0.4,1.4-0.6,2.2-0.6c0.8,0,1.5,0.2,2.2,0.6l14.2-14.2C44.7,10.9,44.2,10.9,43.7,11L43.7,11z"/>
		<path class="st3" d="M31,28.6c0-1.2-1-2.2-2.2-2.2s-2.2,1-2.2,2.2s0.9,2.3,2.2,2.3C30,30.8,31,29.8,31,28.6z"/>
		<path class="st3" d="M13.7,48.5c0.2-0.2,0.4-0.3,0.6-0.4c-0.8,0.1-1.3,0.1-1.3,0.1c-1.2,0.1-2.9,0.9-4,1.8l-2.9,3
			c0.6,0.6,1.3,1,1.9,1.3C10,52.2,13.6,48.5,13.7,48.5z"/>
		<path class="st3" d="M11,44.9l14.2-14.2c-0.4-0.7-0.7-1.4-0.7-2.2c0-0.8,0.3-1.5,0.7-2.2L11,12.2c0.1,0.4,0.2,0.9,0.2,1.3
			c0.1,0.3,0.7,4.6,0.7,15.1c0,10.4-0.6,14.7-0.7,15.1C11.2,44,11.1,44.5,11,44.9z"/>
		<path class="st3" d="M43.9,8.7c-0.2,0.1-0.3,0.2-0.4,0.3l0,0c0.1,0,0.1,0,0.1,0c2.3-0.1,4-0.9,5.1-1.9l3-2.9c-0.6-0.6-1.3-1-2-1.3
			C47.6,4.9,43.9,8.6,43.9,8.7z"/>
		<path class="st3" d="M9.3,43.3C9.1,43.6,9,43.8,8.8,44c-0.1,0.1-3.5,3.5-5.3,5.3c0.3,0.7,0.6,1.4,1,2c0.6-0.6,2.8-2.8,2.8-2.9
			c0.9-1,1.8-2.9,1.9-4C9.2,44.4,9.3,44.1,9.3,43.3z"/>
		<path class="st3" d="M28.8,56c12,0,16.9-0.8,16.9-0.8c0.7-0.1,1.4-0.1,2-0.3L42.8,50c-0.9-0.8-2.4-2-3.6-2.3c-0.1,0-0.1,0-0.1,0
			c-0.4,0-0.8-0.1-1.2-0.1c-0.9,0-4.6,0-12-0.1c-2.5,0-4.1,0.1-5,0.1c-0.7,0-1.4,0-2,0.1h-0.1c-1.2,0.3-2.6,1.5-3.6,2.3l-5.1,5.1
			c0.6,0.1,1.2,0.2,1.8,0.2C11.9,55.3,16.8,56,28.8,56z"/>
		<path class="st3" d="M28.8,1.1c-12,0-16.9,0.7-16.9,0.7c-0.7,0.1-1.4,0.2-2,0.3L14.8,7c0.9,0.8,2.4,2,3.6,2.3
			c0.1,0,0.1,0.1,0.1,0.1c0.4,0,0.8,0.1,1.2,0.1c1,0,4.6,0,12,0.1c2.3,0,3.8,0,4.7-0.1s1.7-0.1,2.4-0.1C40,9,41.4,7.9,42.3,7.1
			L47.4,2c-0.6-0.1-1.2-0.2-1.8-0.2C45.7,1.8,40.8,1.1,28.8,1.1z"/>
		<path class="st3" d="M2.6,11.6c0,0-0.8,7.9-0.8,16.9c-0.1,9,0.8,16.9,0.8,16.9c0.1,0.5,0.1,1,0.2,1.4l4.4-4.5
			c0.9-1,2.3-2.8,2.4-3.9c0-0.1,0-0.1,0-0.1v-0.2c0-0.3,0-4.4,0.1-12.5c-0.1-2.9-0.1-4.7-0.1-5.5c0-0.6-0.1-1.1-0.1-1.6v-0.1
			c-0.2-1-1.3-2.4-2.2-3.4l-4.6-4.6C2.7,10.8,2.6,11.2,2.6,11.6z"/>
		<path class="st3" d="M3.4,8.1c1.9,1.9,5.4,5.4,5.5,5.5c0.2,0.2,0.3,0.4,0.5,0.6c-0.1-0.8-0.2-1.4-0.2-1.4c-0.1-1.2-0.9-2.9-1.9-4
			L4.5,5.9C4.1,6.5,3.7,7.2,3.4,8.1z"/>
		<path class="st3" d="M54.7,10.2l-4.4,4.5c-0.8,0.9-2,2.4-2.3,3.6c0,0.1,0,0.1,0,0.1c0,0.3-0.1,0.6-0.1,0.9c0,0.7,0,4.5-0.1,12.2
			c0,1.6,0,3.1,0,4c0,0.1,0,0.1,0,0.2c0.1,1.1,0.1,2.1,0.1,3c0.3,1.2,1.5,2.6,2.3,3.5l4.6,4.6c0.1-0.4,0.1-0.8,0.2-1.2
			c0,0,0.8-7.6,0.8-16.9c0-9-0.8-16.9-0.8-16.9C54.9,11.1,54.8,10.6,54.7,10.2z"/>
		<path class="st3" d="M51.7,52.9c-0.6-0.6-2.9-2.9-3-2.9c-1.1-0.9-2.9-1.8-4-1.8c0,0-0.3-0.1-1-0.1c0.2,0.2,0.4,0.3,0.6,0.5
			c0.1,0.1,3.6,3.6,5.6,5.6C50.5,53.8,51.1,53.4,51.7,52.9z"/>
		<path class="st3" d="M50.2,8.6c-0.9,1-1.8,2.8-1.9,5c0.2-0.2,0.3-0.4,0.4-0.6c0.1-0.1,3.5-3.5,5.3-5.3c-0.3-0.7-0.7-1.4-1-2
			C51.8,7,50.4,8.5,50.2,8.6z"/>
		<path class="st3" d="M53,51.3c0.4-0.7,0.8-1.4,1.1-2.2c-1.9-1.9-5.4-5.4-5.5-5.4c-0.2-0.2-0.3-0.3-0.4-0.5
			c0.1,0.8,0.2,1.3,0.2,1.3c0.1,1.2,0.9,3,1.8,4.1L53,51.3z"/>
	</g>
</g>
<g id="hum" class="st0">
	<g id="symbol_4_" class="st2">
		<path class="st3" d="M6.1,52.8c10.4-3.6,17.7-6.2,20.4-7.2C22.7,46,13,47.2,3.1,48.3C3.7,50.2,4.7,51.7,6.1,52.8z"/>
		<path class="st3" d="M2.8,47c9.2-1.1,18-2.2,22.1-2.6C21,44.2,12.5,43.6,2.3,43c0.1,1.3,0.2,2.2,0.2,2.2C2.6,45.8,2.7,46.4,2.8,47
			z"/>
		<polygon class="st3" points="44.5,24.7 38.2,36 52.7,17.1 		"/>
		<path class="st3" d="M1.8,34.1c0.1,3,0.3,5.5,0.4,7.4c13.5,0.8,21.5,1.4,25.3,1.6c0.1-0.2,0.1-0.4,0.2-0.6
			c-5.2-2.5-8.9-4.2-14.1-6.6c-2.2,1.7-6.4,0.8-7.1-2.4L1.8,34.1z"/>
		<path class="st3" d="M30.8,55.7c0.3-2.3,0.6-4.7,0.8-6.6c-1.5-0.2-2.8-1.2-3.5-2.5L7.4,53.8C9.4,56,23.4,55.8,30.8,55.7z"/>
		<path class="st3" d="M55.2,42c-3.6,0.4-9.5,1.3-11.9,1.5c2.5,0.1,7.9,0.1,11.7,0.1C55.1,43.3,55.1,42.6,55.2,42z"/>
		<path class="st3" d="M24.2,10.8c-0.2,2.5-2.3,4.6-4.9,4.6c-0.5,0-0.9-0.2-1.4-0.3c-2,3.9-3.9,7.7-6,11.9c0.6,0.1,1.2,0.3,1.7,0.6
			c7.9-6.2,14-10.8,22.6-17.5C36.1,9.8,36,9.5,36,9.2C32.7,9.6,28.1,10.3,24.2,10.8z"/>
		<path class="st3" d="M45.5,7.8c0.1,0.4,0,0.8,0,1.2l7.1,1.9c0,0,1.2-0.3,2.2-0.4c-0.2-1.5-0.6-2.8-1.2-4L45.5,7.8z"/>
		<path class="st3" d="M49.5,12.6c-1.2,3-2.6,6.2-3.8,9c3.4-3.1,6-5.4,9.3-8.5c0-0.5,0-0.6,0-0.9C53.2,12.3,51.4,12.5,49.5,12.6z"/>
		<path class="st3" d="M36,41.2c0.2,0.2,0.3,0.4,0.4,0.6c1.9-0.8,11.5-5.1,19.2-8.5c0.1-1.6,0.1-3.3,0.1-5.1c0-4.7-0.3-9.1-0.5-12.2
			C48.7,24.6,42.8,32.3,36,41.2z"/>
		<path class="st3" d="M54.9,45.2L54.9,45.2C49.1,45,40,44.9,38.5,44.9l15.6,4C54.5,47.9,54.8,46.6,54.9,45.2z"/>
		<path class="st3" d="M53.4,50.3c-4.2-1.1-9.1-2.4-11.8-3.1c3.4,1.4,7.6,3.3,10.7,4.7C52.8,51.4,53.1,50.8,53.4,50.3z"/>
		<path class="st3" d="M36.9,11.4L14.7,28.5l0.1,0.1L47.3,12c0,0-1.8-0.8-2.5-1.1C42.3,14.1,38.8,13.8,36.9,11.4z"/>
		<path class="st3" d="M15.7,10.5c0,2,1.7,3.7,3.7,3.7s3.7-1.7,3.7-3.7s-1.7-3.7-3.7-3.7C17.3,6.8,15.7,8.5,15.7,10.5z"/>
		<polygon class="st3" points="18.4,0.9 19.1,4.7 19.3,0.9 		"/>
		<path class="st3" d="M35.9,44.3c0-2-1.7-3.7-3.7-3.7s-3.7,1.7-3.7,3.7s1.7,3.7,3.7,3.7C34.3,48,35.9,46.3,35.9,44.3z"/>
		<path class="st3" d="M55.6,35.1c-7.2,3.1-16.4,7.1-18,7.8c1.7-0.2,10.7-1.4,17.6-2.3C55.4,39,55.5,37.2,55.6,35.1z"/>
		<path class="st3" d="M51.2,52.9c-6-2.6-12.4-5.3-14.8-6.4C35.6,48,34.7,48.6,33,49c-0.3,2.8-0.5,4.6-0.7,6.7
			C38.3,55.7,47.7,56.5,51.2,52.9z"/>
		<polygon class="st3" points="15.5,29.8 15.7,30.2 43.3,23.7 47.6,13.5 		"/>
		<path class="st3" d="M12.8,1.4c-0.7,0.1-0.9,0.1-0.9,0.1c-5.5,0.9-8.8,3.7-9.3,9.8c-0.2,2.3-0.1,1.5-0.3,3.5
			c4.8-1.3,9.5-2.6,12.3-3.4c-0.1-0.3-0.1-0.6-0.1-0.9c0-1.5,0.7-2.7,1.7-3.6C15.4,5.7,13.9,3.1,12.8,1.4L12.8,1.4z"/>
		<path class="st3" d="M1.7,31.6c1.5,0.1,3.4,0.2,4.5,0.3c-0.3-2.8,2.1-5.2,4.1-4.9c2.1-4.1,4.4-8.8,6.3-12.6
			c-0.7-0.4-1.3-1-1.7-1.8c-3.8,1-12.8,3.6-12.9,3.6C1.8,21.9,1.6,26.5,1.7,31.6z"/>
		<path class="st3" d="M28.4,41.4c0.9-1.6,4-2.4,6-1.5l7.9-14.4c-8.6,2-18.5,4.3-26.3,6.1c0,0.1,0,0.2,0,0.2c0,1.2-0.6,2.3-1.3,3.1
			C19.6,37.2,23.4,39,28.4,41.4z"/>
		<path class="st3" d="M28.2,0.7c-1,0-2.1,0-3.1,0c-0.9,1.9-2.1,4.2-2.8,5.8c0.9,0.7,1.6,1.7,1.8,2.9c4.2-0.6,7.6-1,11.9-1.5
			c0.2-1.7,1.2-3,2.6-3.8c-0.2-0.8-0.5-2.3-0.7-3.3C34.1,0.8,31.3,0.7,28.2,0.7z"/>
		<path class="st3" d="M14.4,1.3c0.9,1.5,2.3,3.6,3,4.8C17.5,6,17.7,6,17.9,5.8c-0.2-1-0.6-3.4-0.8-4.9C15.9,1.1,15.1,1.2,14.4,1.3z
			"/>
		<circle class="st3" cx="11.1" cy="31.8" r="3.7"/>
		<path class="st3" d="M20.4,5.7c0.2,0.1,0.4,0.1,0.6,0.2c0.5-1,1.8-3.6,2.5-5.1c-1,0-1.9,0.1-2.8,0.1C20.6,2.4,20.4,4.5,20.4,5.7z"
			/>
		<path class="st3" d="M45.6,1.5c-2.4-0.3-3.7-0.4-6.3-0.5l0.6,2.6c2.2-0.5,5.2,1.2,5.3,2.9c1.3-0.2,5.4-0.9,7.7-1.3
			C51.2,2.9,48,1.8,45.6,1.5z"/>
		<circle class="st3" cx="40.7" cy="8.4" r="3.7"/>
	</g>
</g>
<g id="ifkst" class="st0">
	<g id="symbol_5_" class="st2">
		<path class="st3" d="M26.2,44.1c0-5.6,1.3-10.3,4.2-13.7c1.4-1.6,3-2.9,5.1-3.8L33,23c-2,0.9-3.8,2.2-5.2,3.7
			c-3.6,3.6-5.7,8.8-5.7,15.1v14.5c1.2,0,2.6,0,4.1,0.1C26.2,56.3,26.2,44.1,26.2,44.1z"/>
		<path class="st3" d="M42.8,20.9c-2.7,0-5.2,0.4-7.4,1.2l2.5,3.7c1.7-0.4,3.5-0.7,5.5-0.7H56c-0.1-1.4-0.1-2.8-0.1-4.1H42.8V20.9z"
			/>
		<path class="st3" d="M55.2,45.8c0,0,0.5-5,0.7-11.6h-9c-4.7,0-7.6,0.4-9.3,1.9c-1.7,1.4-2.5,4.2-2.5,9.6v10.7
			c7.3-0.2,10.6-0.6,10.6-0.6C51,55.5,54.7,51.8,55.2,45.8z"/>
		<path class="st3" d="M54.5,7.9h-16c-13.5,0-24.8,8.9-28.3,21.3l4.4,0.9C18.1,19.2,28,12,40.4,12h14.9c0-0.1-0.1-0.5-0.1-0.5
			C55.1,10.1,54.8,9,54.5,7.9z"/>
		<path class="st3" d="M32.7,56.4V45.6c0-5.6,0.8-9.2,3.3-11.4c2-1.8,4.7-2.3,8.3-2.5v-4.1h-0.9c-5.1,0-8.8,1.6-11.1,4.4
			s-3.6,6.9-3.6,12.1v12.3h0.1C30.3,56.4,31.4,56.4,32.7,56.4z"/>
		<path class="st3" d="M56.1,27.6h-9.4l0.1,4H56c0-1,0.1-2,0.1-3C56.1,28.6,56.1,27.6,56.1,27.6z"/>
		<path class="st3" d="M9,37.4v17.8c0.8,0.3,1.8,0.5,2.7,0.5c0,0,0.6,0.1,1.4,0.2V39.2c0-2.4,0.3-4.6,0.8-6.8l-4.4-0.8
			C9.2,33.5,9,35.4,9,37.4z"/>
		<path class="st3" d="M20,24.4c-2.8,4-4.5,9.1-4.5,14.8V56c1,0.1,2.5,0.1,4,0.2V41.7c0-5.5,1.5-10.4,4.2-14.2L20,24.4z"/>
		<path class="st3" d="M45.8,1.5c0,0-4.9-0.7-17.1-0.7S11.6,1.5,11.6,1.5c-5.2,0.2-8.8,3.8-9.4,9.9c0,0-0.9,7.9-0.9,17.2
			c0,9.5,0.9,17.2,0.9,17.2c0.3,3.8,1.9,6.7,4.3,8.3V37.4c0-17.6,14.2-31.9,31.9-31.9h14.7C51.5,3,48.9,1.7,45.8,1.5z"/>
		<path class="st3" d="M40.4,14.4c-7.8,0-14.4,3-18.9,8.1l3.9,3.2c0.2-0.2,0.4-0.5,0.6-0.7c4.1-4.1,9.9-6.5,16.7-6.5h13
			c-0.1-2.1-0.2-2.9-0.3-4.1H40.4z"/>
	</g>
</g>
<g id="imop" class="st0">
	<g id="symbol_6_" class="st2">
		<path class="st3" d="M38.4,17.2c-4.8,2.4-11.5,4.7-19.1,6.7C12.6,25.5,6.5,26.6,1.5,27c0,0.6-0.1,1.2-0.1,1.8c0,0.7,0.1,1.3,0.1,2
			c5.3-0.4,11.8-1.6,18.8-3.4c8.2-2.1,15.6-4.6,20.6-7.1c2.5-1.2,4.5-2.5,5.7-3.6c0.2-0.2,0.4-0.4,0.6-0.6c0.4,0.6,0.8,1.2,1.2,1.7
			c-0.2,0.2-0.3,0.3-0.4,0.4c-1.4,1.2-3.5,2.5-6.1,3.8c-5.2,2.5-12.6,5.2-21,7.3c-7.1,1.8-13.8,3-19.2,3.4c0.1,1.3,0.1,2.5,0.1,3.6
			c5.5-0.4,12.5-1.5,20-3.5c8.5-2.2,16-4.8,21.2-7.4c2.6-1.3,4.7-2.6,5.9-3.6c0.6-0.5,0.9-0.9,1.1-1.3c0.3,0.7,0.7,1.3,1,2
			c-0.3,0.3-0.6,0.6-0.9,0.8c-1.5,1.3-3.6,2.5-6.3,3.9c-5.4,2.6-13,5.3-21.6,7.5c-7.6,1.9-14.7,3.1-20.4,3.6C1.9,40,2,40.8,2.1,41.9
			c5.7-0.4,13.1-1.6,21-3.6c8.7-2.2,16.4-5,21.8-7.6c2.7-1.3,4.8-2.6,6.1-3.8c0.5-0.4,0.8-0.8,1.1-1.2c0.2,0.5,0.3,1,0.4,1.5
			c0.1,0.3,0.2,0.5,0.2,0.8c-0.2,0.1-0.3,0.3-0.4,0.4c-1.5,1.3-3.7,2.6-6.5,4c-5.3,2.7-13.1,5.6-22,7.8c-8.1,2-15.4,3.2-21.4,3.6
			c0.1,0.4,0.2,1.8,0.2,1.8c0.1,0.6,0.2,1.2,0.3,1.8c5.8-0.3,13.5-1.5,21.8-3.6c8.5-2.2,16-4.9,21.2-7.4c2.6-1.3,4.7-2.5,5.9-3.6
			c0.7-0.6,1-1.1,1.2-1.4c0.2-0.4,0.2-0.6,0.2-0.7h0.2c0.2,1,0.2,2,0.3,3c-0.2,0.2-0.4,0.4-0.6,0.6c-1.5,1.3-3.6,2.6-6.3,3.9
			c-5.4,2.6-13,5.3-21.6,7.6C16.6,47.8,8.9,49,3,49.3c0.5,1.3,1.2,2.5,2.1,3.4c5.5-0.3,12.8-1.5,20.6-3.5c8.2-2.1,15.6-4.7,20.6-7.2
			c2.5-1.2,4.5-2.5,5.7-3.5c0.6-0.5,1-1,1.3-1.4c0.1-0.1,0.1-0.1,0.1-0.1c-0.1,1.1-0.2,2.2-0.4,3.3c-1.4,1.2-3.3,2.3-5.7,3.5
			c-5.2,2.6-12.6,5.2-21,7.3c-6.8,1.8-13.2,2.8-18.6,3.3c1.2,0.6,2.4,0.9,3.8,0.9c0,0,3,0.4,9.8,0.6c1.9-0.4,3.9-0.9,5.8-1.4
			c7.6-1.9,14.2-4.2,18.8-6.5c2.3-1.1,4.1-2.3,5.2-3.2c0.6-0.4,1-0.9,1.2-1.2c-0.4,1.3-0.8,2.6-1.4,3.9c-1.2,0.8-2.5,1.5-4.1,2.3
			C42.4,52,36.4,54.2,29.6,56c6-0.1,9.9-0.2,12.4-0.4c1-0.4,2-0.8,2.8-1.3c1.4-0.7,2.5-1.3,3.4-1.9c-0.7,0.9-1.3,1.9-2,2.8
			c4.6-0.6,7.8-4,8.3-9.7c0,0,0.9-7.6,0.9-16.9c0-9-0.9-16.8-0.9-16.8c-0.6-6-4.1-9.5-9.2-9.8c0,0-4.9-0.7-16.8-0.7
			C16.5,1.3,11.7,2,11.7,2C6.6,2.3,3,5.8,2.4,11.8c0,0-0.1,1.2-0.1,1.4c0.1,0,0.1,0,0.1,0c3.4-0.1,8.1-0.8,13.1-2.1S25,8.2,28.1,6.7
			c1.4-0.7,2.4-1.3,3-1.9c0.8,0.2,1.5,0.6,2.2,0.8C33.1,5.8,33,6,32.7,6.2c-0.9,0.8-2.2,1.5-3.8,2.4c-3.3,1.6-7.8,3.2-13,4.5
			S6,15.2,2.4,15.3c-0.2,0-0.3,0-0.4,0c-0.1,1.2-0.2,2-0.3,3.8c4.3-0.3,9.8-1.2,15.7-2.7c6.5-1.7,12.2-3.6,16.2-5.6
			c2-1,3.5-1.9,4.4-2.8c0.1,0,0,0,0.1-0.1c0.6,0.4,1.2,0.7,1.8,1.1c-0.2,0.2-0.3,0.3-0.4,0.5c-1.2,1-2.9,1.9-4.9,3
			c-4.1,2-10,4.1-16.5,5.8c-6.3,1.7-12,2.6-16.5,2.9c-0.1,1.2-0.1,2.5-0.2,3.8c4.9-0.4,10.9-1.4,17.4-3.1c7.5-1.9,14.1-4.2,18.7-6.5
			c2.3-1.1,4.1-2.3,5.2-3.2c0.2-0.1,0.3-0.3,0.4-0.4c0.5,0.4,1,0.9,1.4,1.4c-0.2,0.2-0.4,0.3-0.6,0.5C42.7,14.8,40.8,16,38.4,17.2z
			 M23,4.2c-0.5,0.4-1.2,0.8-2,1.2c-1.5,0.8-3.6,1.4-6,2s-4.6,1-6.3,1.1c-0.8,0.2-1.5,0-2.1-0.1C6.3,8.3,6,8.3,5.7,8.1
			c0.9-0.6,1.9-1,2.9-1.5c0.1,0,0-0.1,0.1-0.1c1.5-0.1,3.6-0.4,5.9-0.9c2.3-0.6,4.3-1.3,5.6-1.9c0.6-0.1,1.2-0.1,1.7-0.1
			s1.1,0,1.7,0.1C23.4,3.9,23.3,4.1,23,4.2z"/>
	</g>
</g>
<path id="immt" class="st3" d="M28.4,1.1c-2.1,0-3.9,0-5.6,0.1L2,15.6c-0.2,3.1-0.5,7.7-0.5,12.9c0,5.1,0.3,9.7,0.5,12.8l20.9,14.5
	c1.6,0,3.4,0.1,5.5,0.1c2,0,3.8,0,5.4-0.1l21-14.5c0.2-3.1,0.5-7.6,0.5-12.8c0-5.2-0.3-9.7-0.5-12.9L34,1.2
	C32.3,1.2,30.5,1.1,28.4,1.1 M19.8,1.3c-5.7,0.2-8.2,0.6-8.2,0.6c-5.1,0.2-8.7,3.7-9.3,9.7c0,0-0.1,0.7-0.2,1.8
	C8.1,9.4,13.9,5.4,19.8,1.3 M36.9,1.3c5.9,4.1,11.8,8.1,17.7,12.2c-0.1-1.1-0.2-1.8-0.2-1.8c-0.5-6-4.1-9.5-9.3-9.7
	C45.2,1.9,42.7,1.5,36.9,1.3 M28.4,5.6c4.3,3,9.5,6.6,14.5,10.1c-4.3,3-9.5,6.5-14.5,10c-4.3-3-9.4-6.5-14.5-10
	C18.3,12.7,23.3,9.2,28.4,5.6 M28.4,7.7l-3.6,2.5v11.1l3.5,2.4l4.2-2.9V10.6L28.4,7.7z M23.2,11.3l-6.3,4.4l6.3,4.3V11.3z
	 M34.2,11.7l0,7.9l5.7-4L34.2,11.7z M9,20.7c4.8,3.3,10.2,7.1,15.8,10.9v17.2C20.1,45.6,14.5,41.6,9,37.9V20.7z M47.8,20.7v17.2
	c-4.5,3.2-9.9,6.8-15.2,10.5V31.2C37.1,28,42.4,24.3,47.8,20.7 M46.1,23.8l-6.6,4.6l6.6,4.6V23.8z M10.7,23.9V33l6.6-4.6L10.7,23.9z
	 M37.9,29.5L34.2,32l0,3.2l7.2,4.9l4.7-3.2l0-1.9L37.9,29.5z M18.9,29.5l-8.1,5.6l0,1.9l4.6,3.2l7.8-5.4l0-2.3L18.9,29.5z
	 M23.2,36.8l-6.3,4.4l6.3,4.4V36.8z M34.3,37.3l0,7.9l5.7-4L34.3,37.3z M2.2,43.5c0.1,1.1,0.2,1.9,0.2,1.9c0.5,6,4.1,9.5,9.3,9.7
	c0,0,2.5,0.4,8.3,0.6L2.2,43.5z M54.6,43.5L36.9,55.7c5.8-0.2,8.3-0.6,8.3-0.6c5.1-0.2,8.7-3.7,9.3-9.7
	C54.4,45.4,54.5,44.6,54.6,43.5"/>
<path id="ipmm" class="st4" d="M28.1,1.1l-7.6,5.1l15.9,0l-7.6-5H28.1z M24.5,1.2c-8.8,0.1-12.7,0.7-12.7,0.7
	C7.7,2.1,4.6,4.3,3.2,8.3l12.6-1.1C15.8,7.2,21.7,3.2,24.5,1.2 M32.5,1.2L40.7,7l13.1,1.3c-1.4-4-4.5-6.3-8.6-6.4
	C45.3,1.9,41.3,1.4,32.5,1.2 M17.4,8.5c-1,2.3-2,4.7-2.9,7.1l10.7-7.1H17.4z M31.8,8.5l10.8,7.2l-1-2.6l-2-4.6H31.8z M28.5,8.7
	l-13.1,8.8h26.2L28.5,8.7z M14.9,9.3l-12.1,1c-0.1,0.4-0.2,0.8-0.2,1.3c0,0-0.3,3.3-0.6,7.8L5.1,26c2.1-2.7,6.3-8,6.3-8
	S13.9,11.9,14.9,9.3 M42.2,9.3c1.2,3,3.7,9,3.7,9L52,26l3.1-6.7c-0.3-4.5-0.6-7.7-0.6-7.7c0-0.4-0.1-0.8-0.2-1.3L42.2,9.3z M14,19.4
	l14.6,25.3l9.6-16.6l5-8.7H14z M13.1,21.7l-1,15.8c4.6,2.3,9.3,4.6,14,6.8L13.1,21.7z M44.1,21.7L31,44.5c4.7-2.3,9.4-4.6,14.1-7
	L44.1,21.7z M11.1,21.8L6.3,28l4,6.8L11.1,21.8z M46.1,21.9l0.8,12.9l3.9-6.8l-4.3-5.6L46.1,21.9z M55.3,23.4l-2.2,4.7
	c-0.1,0.1-0.1,0.2-0.2,0.3c0,0,0,0,0,0.1l-0.1,0.1l0.9,13.3c0,0.4-0.2,0.7-0.5,0.9l-12,6c-0.1,0.1-0.1,0.1-0.2,0.1
	c-0.1,0.1-0.2,0.2-0.4,0.3l-4.4,6.3c6.4-0.2,9.2-0.7,9.2-0.7c5.1-0.2,8.7-3.7,9.3-9.7c0,0,0.9-7.5,0.9-16.8
	C55.4,26.7,55.4,25.1,55.3,23.4L55.3,23.4z M1.8,23.6c0,1.6-0.1,3.2-0.1,4.9c0,9,0.8,16.8,0.8,16.8c0.5,6,4.1,9.5,9.2,9.7
	c0,0,2.8,0.4,9.3,0.7l-4.8-6.6L4.1,42.8c-0.3-0.2-0.6-0.5-0.6-0.9l0.9-13.3C3.7,27.6,2.7,25.3,1.8,23.6L1.8,23.6z M6.3,31.9
	l-0.7,9.6l8.6,4.3L6.3,31.9z M51,31.9l-7.9,13.8l8.6-4.3L51,31.9z M13.8,40.6l4,6.7l7.5-1.1L13.8,40.6z M43.6,40.6L32,46.1l7.6,1.1
	L43.6,40.6z M18.9,49.2l4.5,6.4c1.6,0,3.1,0.1,5.1,0.1c2,0,3.5,0,5.1-0.1l4.6-6.6l-9.6-1.4C25.4,48.1,22.2,48.6,18.9,49.2"/>
<path id="ivtob" class="st4" d="M28.4,1.3C16.5,1.3,11.7,2,11.7,2C6.6,2.2,3,5.7,2.4,11.7c0,0.1,0,0.1,0,0.2c0,1.4-0.1,2.8-0.1,4.4
	C2.5,26.6,3.6,38.7,7,45.6c2,4,4.6,7.2,7.4,9.8c1.8,0.2,4.7,0.3,8.9,0.4c-4-2.3-9.5-6.4-12.7-12.9C7.6,37,6.8,27.6,6.8,19.6
	c-0.1-8,0.6-14.6,0.6-14.6c0-0.5,0.4-0.9,0.9-0.9h40.4c0.5,0,0.9,0.4,1,0.9c0,0,0.7,6.6,0.6,14.6c-0.1,8-0.7,17.3-3.8,23.1
	c-3.6,6.9-8.7,10.8-12.5,12.9c4.2-0.1,7.1-0.3,8.9-0.4c2.5-2.5,5-5.7,7.2-9.8c3.5-6.8,4.6-18.9,4.7-29.2c0-1.7,0-3.1-0.1-4.6
	c0,0,0-0.1,0-0.1c-0.6-5.9-4.2-9.4-9.3-9.6C45.2,2,40.4,1.3,28.4,1.3 M9.2,6.1c-0.1,0.7-0.6,6.1-0.5,13.5c0.1,7.9,0.9,17.1,3.5,22.3
	c4.7,9.3,13.8,13.2,15.6,13.9h1.3c2.4-0.8,10.4-4.2,15.5-13.9c2.7-5.1,3.5-14.4,3.6-22.3c0-7.4-0.5-12.8-0.6-13.6H9.2z M14.6,12H42
	c0.5,0,0.9,0.4,1,0.9c0,0,0.4,4.5,0.4,9.9c0,5.4-0.5,11.7-2.6,15.7C36.4,46.9,28.6,49,28.6,49c-0.2,0-0.4,0-0.6-0.1
	c0,0-8.2-2.8-12-10.4c-2-4-2.5-10.4-2.5-15.8c-0.1-5.4,0.3-9.8,0.3-9.8C13.9,12.5,14.2,12.1,14.6,12 M15.8,14
	c-0.1,0.7-0.4,4-0.4,8.8c0,5.3,0.7,11.5,2.4,14.9c3.3,6.6,10.2,9.2,10.7,9.3c0.5-0.1,6.7-2,10.6-9.3c1.7-3.3,2.3-9.6,2.4-14.9
	c0-4.8-0.3-8.1-0.4-8.8H15.8z M20.2,19.1h16.2c0.5,0,0.9,0.4,1,0.9c0,0,0.3,2.6,0.3,5.8c0,3.2-0.3,6.9-1.6,9.4
	c-2.6,5.1-7.4,6.4-7.4,6.4c-0.2,0.1-0.4,0.1-0.6,0c0,0-4.9-1.7-7.2-6.4c-1.3-2.5-1.5-6.2-1.6-9.4c0-3.2,0.3-5.8,0.3-5.8
	C19.5,19.5,19.8,19.2,20.2,19.1 M21.4,21c-0.1,0.6-0.2,2.1-0.1,4.7c0,3.1,0.4,6.7,1.3,8.6c1.8,3.6,5.5,5,5.9,5.2
	c0.5-0.1,3.7-1.2,5.8-5.2c1-1.8,1.3-5.4,1.3-8.5c0-2.6-0.1-4.2-0.1-4.8H21.4z M1.7,33.8c0.2,6.6,0.8,11.6,0.8,11.6
	c0.5,5.8,4,9.3,8.9,9.7c-2.3-2.4-4.4-5.3-6.1-8.6C3.5,43,2.4,38.6,1.7,33.8 M55.2,33.8c-0.7,4.8-1.9,9.2-3.7,12.6
	c-1.8,3.4-3.8,6.2-6,8.6c4.9-0.4,8.4-3.8,8.9-9.7C54.4,45.4,54.9,40.5,55.2,33.8"/>
<g id="ifnt" class="st0">
	<path class="st1" d="M31.8,1.1c-1,0-2,0-3.1,0C16.8,1.1,12,1.8,12,1.8C6.8,2,3.2,5.5,2.7,11.5c0,0-0.8,7.8-0.8,16.8
		c0,9,0.8,16.8,0.8,16.8c0.5,6,4.1,9.5,9.3,9.7c0,0,4.8,0.7,16.7,0.7c7.2,0,11.6-0.3,14.1-0.5c7.3-5.6,12-14.4,12-24.3
		C54.8,16.5,45,4.5,31.8,1.1L31.8,1.1z M52.6,27.5c0,8.1-4.1,15.3-10.3,19.6c0.3,0.5,0.5,1.1,0.5,1.7c0,2.3-1.9,4.2-4.2,4.2
		c-1.6,0-2.9-1-3.6-2.4c-2.1,0.6-4.2,0.9-6.5,0.9c-13.3,0-24-10.8-24-24c0-13.2,10.8-24,24-24C41.8,3.5,52.6,14.2,52.6,27.5z"/>
	<path class="st1" d="M26.2,27.6c1.4,0,2.5-1.1,2.5-2.5c0-1.4-1.1-2.5-2.5-2.5c-1.4,0-2.5,1.1-2.5,2.5
		C23.7,26.5,24.8,27.6,26.2,27.6z"/>
	<path class="st1" d="M16.1,13.8c1.1,0.7,2,1.9,2,3.3c0,2.3-1.9,4.2-4.2,4.2c0,0-0.1,0-0.2,0c0,0.2,0,0.5,0,0.7
		c0,8.8,7.1,15.9,15.9,15.9c8.8,0,15.9-7.1,15.9-15.9c0-8.8-7.1-15.9-15.9-15.9C23.8,6.1,18.9,9.2,16.1,13.8z M22.4,18.7
		c0-5.8,4.7-10.6,10.6-10.6c5.8,0,10.6,4.7,10.6,10.6c0,5.8-4.8,10.6-10.6,10.6c-1.5,0-3-0.3-4.3-0.9c-0.7,0.5-1.5,0.9-2.5,0.9
		c-2.3,0-4.1-1.9-4.1-4.1c0-1,0.4-1.9,1-2.6C22.6,21.3,22.4,20,22.4,18.7z"/>
	<path class="st1" d="M26.2,21c2.3,0,4.2,1.8,4.2,4.1c0,0.8-0.3,1.4-0.6,2.1c1,0.4,2.1,0.6,3.2,0.6c5,0,9.1-4.1,9.1-9.1
		c0-5-4.1-9.1-9.1-9.1c-5,0-9.1,4-9.1,9.1c0,1,0.3,1.9,0.6,2.7C25,21.2,25.5,21,26.2,21z M34,11c3,0,5.5,2.5,5.5,5.5
		c0,3-2.4,5.4-5.5,5.4c-3,0-5.5-2.4-5.5-5.4C28.6,13.5,31.1,11,34,11z"/>
	<path class="st1" d="M34,20.4c2.2,0,4-1.7,4-3.9c0-2.2-1.8-4-4-4h-0.1c-2.1,0.1-3.8,1.8-3.8,4C30.1,18.7,31.9,20.4,34,20.4z
		 M35.2,13c1.3,0,2.3,1,2.3,2.3c0,1.3-1,2.4-2.3,2.4c-1.3,0-2.4-1.1-2.4-2.4C32.8,14.1,33.9,13,35.2,13z"/>
	<path class="st1" d="M47,22c0,9.6-7.8,17.4-17.4,17.4c-9.6,0-17.4-7.8-17.4-17.4c0-0.3,0-0.7,0.1-1.1c-1.5-0.6-2.5-2.1-2.5-3.8
		c0-2.3,1.9-4.1,4.1-4.1c0.3,0,0.5,0.1,0.8,0.1c2.2-3.7,5.7-6.5,9.9-7.8C14,7.3,6,16.4,6,27.5C6,39.9,16.1,50,28.5,50
		c2.1,0,4.1-0.3,6-0.8c0-0.1-0.1-0.3-0.1-0.4c0-2.3,1.9-4.1,4.2-4.1c1.1,0,2,0.5,2.8,1.2c5.8-4.1,9.6-10.8,9.6-18.4
		c0-8.1-4.3-15.1-10.7-19.1C44.4,11.6,47,16.5,47,22z"/>
	<path class="st1" d="M54.7,11.5c-0.5-6-4.1-9.5-9.3-9.7c0,0-2.6-0.4-8.8-0.6c9.4,4,16.5,12.2,18.8,22.4
		C55.3,16.7,54.7,11.5,54.7,11.5z"/>
	<path class="st1" d="M38.7,46.3c-1.4,0-2.5,1.1-2.5,2.5c0,1.4,1.1,2.5,2.5,2.5c1.4,0,2.5-1.1,2.5-2.5C41.1,47.4,40,46.3,38.7,46.3z
		"/>
	<path class="st1" d="M11.5,17.2c0,1.4,1.1,2.5,2.5,2.5c1.4,0,2.5-1.1,2.5-2.5c0-1.4-1.1-2.4-2.5-2.4C12.5,14.7,11.5,15.8,11.5,17.2
		z"/>
	<path class="st1" d="M35.2,16.3c0.5,0,0.9-0.4,0.9-0.9c0-0.5-0.4-0.9-0.9-0.9c-0.5,0-0.9,0.4-0.9,0.9
		C34.3,15.9,34.7,16.3,35.2,16.3z"/>
	<path class="st1" d="M54.7,45.2c0,0,0.3-2.4,0.5-6.1c-1.7,6.2-5.1,11.6-9.8,15.8C50.6,54.7,54.2,51.2,54.7,45.2z"/>
</g>
</svg>
