<svg xmlns="http://www.w3.org/2000/svg" width="57" height="57" viewBox="0 0 57 57">
  <defs>
    <style>
      .cls-1 {
        fill: #313595;
        fill-rule: evenodd;
      }
    </style>
  </defs>
  <path id="inst-logo.svg" class="cls-1" d="M231,91.238l-11.3,14.069-0.426.527-0.644-.059-22.909-1.522L177.9,115.366a9.818,9.818,0,0,0,6.8,2.9s5.092,0.742,17.764.742,17.835-.742,17.835-0.742c5.428-.221,9.216-3.909,9.794-10.166C230.089,108.1,230.949,100.631,231,91.238Zm-0.109-7.854L207.12,98.82l-0.585.369-0.645-.263-19.222-7.951-12.312,11.219c0.244,3.541.536,5.9,0.536,5.9a13.233,13.233,0,0,0,1.507,5.269l18.3-11.435,0.377-.213H195.5l22.592,1.482,12.848-15.97C230.915,85.921,230.941,84.587,230.892,83.384ZM228.8,68.105L208.616,85.228l-0.9.79-0.8-.839L194.7,73.062,174.039,93.453c0.035,1.958.075,3.77,0.159,5.473l11.4-10.379,0.595-.577,0.743,0.314,19.331,8.067,24.406-15.864c-0.259-4.436-.584-7.58-0.584-7.58A13.517,13.517,0,0,0,228.8,68.105ZM202.46,62c-12.672,0-17.764.733-17.764,0.733-5.438.221-9.226,3.909-9.8,10.175,0,0-.87,7.877-0.9,17.064L193.8,70.427l0.9-.946,0.912,0.946,12.263,12.117L227.352,66a9.648,9.648,0,0,0-7.057-3.267S215.141,62,202.46,62Z" transform="translate(-174 -62)"/>
</svg>
