<svg  xmlns="http://www.w3.org/2000/svg" viewBox="0 0 58 58" width="58" height="58">
  <path id="sign" fill="#184180" d="m46.71,44.13c.98,0,1.78.79,1.78,1.77s-.8,1.77-1.78,1.77-1.78-.79-1.78-1.77.8-1.77,1.78-1.77ZM23.88,6.72c0,.98.8,1.77,1.78,1.77s1.78-.79,1.78-1.77-.8-1.77-1.78-1.77-1.78.79-1.78,1.77Zm17.31,21.7c-3.44-.61-7.24-1.1-11.42-1.34.25,3.73.37,7.52.37,11.31v2.02c4.36-4.16,8.04-8.25,11.05-11.98ZM8.22,49.5c.18,2.44.37,4.83.68,7.03,3.13-1.71,6.38-3.91,9.76-6.42-3.56,0-7.06-.24-10.43-.61Zm20.13-7.58c-2.52,2.32-5.09,4.52-7.67,6.54-4.54-.06-8.78-.24-12.64-.67-.12-2.99-.25-6.17-.25-9.47,0-1.96.06-3.85.12-5.68,1.78-1.83,3.68-3.73,5.77-5.68,2.39-.12,4.85-.18,7.43-.18s4.79.06,7,.18c.25,3.61.37,7.4.37,11.43,0,1.22,0,2.44-.12,3.54Zm-5.4-4.28c0-2.81-2.33-5.13-5.16-5.13s-5.16,2.26-5.16,5.13,2.27,5.13,5.16,5.13,5.16-2.32,5.16-5.13Zm-5.16-3.48c-1.9,0-3.5,1.59-3.5,3.48s1.6,3.48,3.5,3.48,3.5-1.59,3.5-3.48-1.6-3.48-3.5-3.48Zm-10.62,22.19c-.25-2.26-.49-4.64-.61-7.03-1.84-.24-3.62-.49-5.34-.79.74,3.91,2.88,6.6,5.95,7.82Zm-1.04-17.97c0-1.28,0-2.57.06-3.79-2.15,2.38-4.05,4.71-5.71,6.91.18,3.24.43,5.38.43,5.38h0c1.72.31,3.56.61,5.46.79-.12-3.06-.25-6.17-.25-9.29Zm51.74-3.85c-2.52-2.26-7.73-4.34-14.91-5.81-3.62,4.71-8.1,9.53-12.89,14-.06,1.83-.12,3.67-.25,5.5,4.97-.31,9.45-.92,13.38-1.71-.06-.18-.06-.37-.06-.61,0-1.89,1.53-3.42,3.44-3.42,1.53,0,2.76.98,3.25,2.32,3.38-1.1,6.01-2.38,7.67-3.73.18-2.2.31-4.34.37-6.54ZM12.95,25.36c.06-.06.12-.12.18-.18,4.3-3.97,8.9-7.7,13.44-10.82-.25-1.53-.55-2.93-.86-4.28h-.12c-1.9,0-3.44-1.53-3.44-3.42,0-1.28.74-2.38,1.78-2.99-.49-1.34-.98-2.57-1.47-3.61-4.05.12-6.94.31-8.78.43-2.39,5.07-4.42,13.93-5.34,25.24,1.47-.12,3.07-.24,4.6-.37ZM25.66,3.24c1.9,0,3.44,1.53,3.44,3.42,0,1.22-.68,2.32-1.66,2.93.25,1.22.49,2.44.74,3.73,9.94-6.6,19.03-9.96,22.52-6.23,3.25,3.48-.12,11.49-6.63,20.23,5.89,1.22,10.8,2.99,13.87,5.13,0-1.16.06-2.32.06-3.48,0-9.53-.92-17.91-.92-17.91-.61-6.3-4.48-10.08-10-10.27,0-.06-5.22-.79-18.11-.79h0c-1.66,0-3.19,0-4.6.06.49.92.86,2.02,1.29,3.18Zm-2.21,45.29c1.6,0,3.19-.06,4.73-.18.06-1.28.12-2.63.18-4.03-1.6,1.47-3.25,2.87-4.91,4.22ZM6.63,25.97C7.37,15.95,9.08,6.66,11.66.73c-.49.06-.74.12-.74.12C5.4,1.04,1.47,4.77.92,11.06c0,0-.8,7.15-.92,15.89,2.15-.37,4.36-.73,6.63-.98ZM49.47,8.19c-2.46-2.63-10.56-.18-21.05,6.85.49,3.24.92,6.72,1.23,10.33,4.42.31,8.72.86,12.64,1.59,6.94-9.11,9.45-16.26,7.18-18.76Zm-28.11,41.99c-3.44,2.69-6.87,5.07-10.19,6.97,1.17.12,6.08.67,16.08.73.31-2.51.61-5.13.8-7.95-2.21.18-4.48.24-6.69.24Zm28.66-3.73c-.25,1.65-1.66,2.93-3.44,2.93-1.1,0-2.09-.55-2.7-1.34-4.3.92-9.14,1.53-14.12,1.89-.18,2.75-.43,5.44-.8,8.07h0c12.89,0,18.11-.79,18.11-.79,5.52-.24,9.39-3.97,9.94-10.27.12-1.22.25-2.44.31-3.67-1.84,1.16-4.36,2.26-7.3,3.18ZM0,28.97c0,3.67.12,7.15.31,10.08,1.84-2.32,3.81-4.64,5.95-6.97.06-1.47.12-2.99.25-4.46-2.33.24-4.48.61-6.51.98v.37Zm21.11-3.85c2.27,0,4.6.06,6.81.18-.25-3.3-.61-6.36-1.1-9.17-3.56,2.51-7.37,5.56-11.29,9.11,1.9-.06,3.74-.12,5.59-.12Zm-10.07,2.02c-.98.06-1.96.18-2.88.24-.06.92-.12,1.83-.18,2.75,1.04-.98,2.09-1.96,3.07-2.99Z"/>
</svg>
