<svg xmlns="http://www.w3.org/2000/svg" width="50" height="50" viewBox="0 0 50 50" >
 
		<path d="M18.3,23.6c-3.6-1.7-5.7-3.2-7.8-5.2c-1.9-1.9-3-3.3-4.1-5.6c-1-2.1-1.7-4.2-2.1-6.7   c-0.1-0.5-0.1-1-0.2-1.6C3,5.9,2.3,7.8,2.1,10.2c0,0-0.8,6.9-0.8,14.8c0,6.5,0.5,12.3,0.7,14.2c0.7-2.2,1.8-4.6,3.6-6.7   C9.1,28.2,15.3,25,18.3,23.6z"   style="fill: #11542b;"/>
		<path d="M15.7,20.2c2,1.3,5.2,2.8,10.1,4.7c1.7,0.7,3.1,1.3,4.3,1.8c2.2-1,9.6-4.4,13.3-8.9   c2.6-3.1,3.7-6.9,4.2-9.6c-0.4-1.5-1-2.7-1.8-3.7c0,0.5-0.1,1-0.2,1.3c-0.6,4.3-2.2,8-4.6,10.9c-1.5,1.8-3.8,3.7-6.1,5.1   c-1.2,0.7-4.9,2.6-5.1,2.6c-0.2-0.1-1.6-1.1-1.6-1.1c0,0,0.4-0.2,0.8-0.4c1.1-0.5,3.1-1.5,4-2c1-0.6,3.1-1.9,3.1-2c0,0-14,0-14,0   v-1.8h16.2l0.6-0.7c0.9-0.9,1.6-1.9,2.2-2.9l0.5-0.8l-26.5,0V11h27.3l0.2-0.5c0.4-1.2,1.1-3.4,1.1-3.8c0,0-32.9,0-32.9,0V4.9H44   l0.1-0.3c0-0.1,0.1-0.8,0.1-1.6c-1.2-0.8-2.7-1.3-4.4-1.4c0,0-4.2-0.6-14.8-0.6S10.2,1.6,10.2,1.6C8.6,1.7,7.1,2.1,5.8,3   C5.9,4.6,6,5.4,6.3,7.1C7.5,12.8,10.4,16.9,15.7,20.2z"  style="fill: #D2D2D2;"/>
		<path d="M48.1,11.6c-0.7,2.3-1.9,4.9-3.7,7.1c-3.5,4.2-9.8,7.4-12.8,8.8c1.2,0.6,2.3,1.1,3.1,1.6   c6.9,4,10.3,8.9,11.1,16.5c1.2-1.4,1.9-3.3,2.1-5.7c0,0,0.8-6.6,0.8-14.8C48.7,19.2,48.3,14,48.1,11.6z"   style="fill: #11542b;"/>
		<path d="M31.7,29.4c-1.7-0.8-3.1-1.5-6.7-2.9c-2-0.8-3.7-1.5-5.1-2.2c-2.3,1-9.5,4.5-13.2,9   c-2.3,2.8-3.5,6.3-4,9c0.4,1.3,0.9,2.4,1.7,3.3c0.8-6.8,3.7-11.6,9.2-15.3c1.6-1,2.6-1.6,4.6-2.6c0.8-0.4,1.5-0.7,1.5-0.7   c0,0,1.7,1.2,1.5,1.2c-2,0.8-4.5,2.1-6.2,3.2L13.9,32l13.6,0l0,1.7l-15.8,0l-0.4,0.5c-0.7,0.7-1.8,2-2.4,2.9   c-0.3,0.5-0.5,0.9-0.5,1c0,0,25.3,0,25.3,0v1.8l-26.3,0l-0.2,0.7c-0.3,0.7-0.8,2.7-0.9,3.3l-0.1,0.4h32.7V46h-33l-0.1,0.6   c0,0.1,0,0.3,0,0.4c1.2,0.8,2.7,1.3,4.4,1.4c0,0,4.2,0.6,14.8,0.6s14.8-0.6,14.8-0.6c1.7-0.1,3.2-0.5,4.4-1.4   c-0.1-1.6-0.4-3.5-0.8-4.9C41.8,36.5,38.3,32.7,31.7,29.4z"   style="fill: #D2D2D2;"/>
 
</svg>