<svg xmlns="http://www.w3.org/2000/svg" viewBox="0 0 58 58" width="58" height="58">
  <defs>
    <style>
      .cls-1 {
        fill: #4eaace;
      }
    </style>
  </defs>
  <polygon class="cls-1" points="34.73 19.54 32.96 23.02 31.46 20.62 21.63 26.99 21.63 27.55 21.63 29.76 21.63 30.44 40.85 42.9 46.74 39.44 46.74 18.56 40.39 14.83 35.53 17.98 34.73 19.54"/>
  <polygon class="cls-1" points="21.63 36.06 19.46 36.06 19.46 29.76 11.24 29.76 11.24 39.44 28.99 49.87 39.12 43.91 21.63 32.58 21.63 36.06"/>
  <path class="cls-1" d="M9.48,17.52L28.99,6.05l11.36,6.68,12.91-8.36c-1.71-1.95-4.1-3.06-6.94-3.16,0-.06-5.05-.79-17.57-.79h0c-12.51,0-17.57,.79-17.57,.79C5.83,1.45,2.04,5.14,1.5,11.43c0,0-.8,7.29-.89,16.13H9.48v-10.03Z"/>
  <path class="cls-1" d="M28.99,51.95l-19.51-11.47v-10.71H.6c.03,9.32,.9,17.22,.9,17.22,.54,6.29,4.33,10.04,9.69,10.23,0,0,5.05,.79,17.57,.79s17.57-.79,17.57-.79c3.14-.14,5.73-1.47,7.45-3.81l-12.96-8.4-11.82,6.95Z"/>
  <path class="cls-1" d="M56.91,29.21c0-9.49-.9-17.78-.9-17.78-.19-2.2-.78-4.08-1.69-5.61l-12.23,7.93,6.43,3.78v22.95l-5.97,3.51,12.17,7.89c.69-1.39,1.14-3.02,1.3-4.89,.6-5.91,.9-11.84,.9-17.78Z"/>
  <polygon class="cls-1" points="11.24 18.56 11.24 27.55 19.46 27.55 19.46 21.26 21.63 21.26 21.63 24.86 30.51 19.1 28.83 16.41 32.67 16.24 35.1 16.13 38.67 13.82 28.99 8.13 11.24 18.56"/>
</svg>